<svg xmlns="http://www.w3.org/2000/svg" width="235.779" height="43.68" viewBox="0 0 235.779 43.68">
  <g id="Grupo_1174048" data-name="Grupo 1174048" transform="translate(-896.686 -1629.686)">
    <path id="Trazado_1031947" data-name="Trazado 1031947" d="M-25.451-12.6-30.118,0h-1.626l-4.57-12.6h1.644l3.489,9.993a5.933,5.933,0,0,1,.255,1.116h.035a5.475,5.475,0,0,1,.29-1.134l3.56-9.976Zm3.289,7.84V0h-1.477V-12.6h3.463a4.571,4.571,0,0,1,3.133.984A3.515,3.515,0,0,1-15.93-8.842a3.82,3.82,0,0,1-1.235,2.936A4.718,4.718,0,0,1-20.5-4.764Zm0-6.5V-6.1h1.547a3.458,3.458,0,0,0,2.333-.7,2.474,2.474,0,0,0,.8-1.973q0-2.5-2.953-2.5ZM-3.4,0H-5.206l-6.486-10.046a4.2,4.2,0,0,1-.4-.791h-.053a12.976,12.976,0,0,1,.07,1.731V0h-1.477V-12.6h1.916l6.311,9.888q.4.615.51.844h.035a13.335,13.335,0,0,1-.088-1.854V-12.6H-3.4ZM13.492-6.539H5.23V-7.7h8.262Zm0,3.744H5.23v-1.16h8.262ZM31.074,4.122H20.887V3.437l5.941-7.761-5.616-7.488V-12.6h9.51v1.354H23.375L28.6-4.359,23.1,2.777h7.972Z" transform="translate(933 1656)" fill="#212429"/>
    <path id="Trazado_1031948" data-name="Trazado 1031948" d="M-.2-10.512q-.255-.167-.584-.343a5.345,5.345,0,0,0-.725-.316A5.725,5.725,0,0,0-2.38-11.4a5.476,5.476,0,0,0-1.006-.088,5.845,5.845,0,0,0-2.377.466,5.219,5.219,0,0,0-1.8,1.283A5.758,5.758,0,0,0-8.7-7.818a6.95,6.95,0,0,0-.4,2.386,5.439,5.439,0,0,0,.29,1.85,3.707,3.707,0,0,0,.826,1.354A3.482,3.482,0,0,0-6.7-1.4a4.657,4.657,0,0,0,1.652.281,7.707,7.707,0,0,0,1.055-.066,6.107,6.107,0,0,0,.879-.185,5.671,5.671,0,0,0,.76-.281Q-2-1.811-1.664-2L-2.006-.448a7.264,7.264,0,0,1-1.525.5A8.872,8.872,0,0,1-5.355.22a5.763,5.763,0,0,1-2.175-.4A4.7,4.7,0,0,1-9.2-1.3a5.033,5.033,0,0,1-1.068-1.745,6.483,6.483,0,0,1-.378-2.268,8.492,8.492,0,0,1,.523-3.032,6.854,6.854,0,0,1,1.485-2.373,6.737,6.737,0,0,1,2.312-1.547,7.812,7.812,0,0,1,2.993-.554,7.425,7.425,0,0,1,1.991.242,7.813,7.813,0,0,1,1.463.549Zm9.274-.721H4.209L3.278-6.926H7.8l-.29,1.362H2.988L1.819,0H.307L2.97-12.6H9.36Zm2.924,12.7H10.671l-.59,2.784q-.031.159-.062.343a1.9,1.9,0,0,0-.031.3.518.518,0,0,0,.115.377.5.5,0,0,0,.367.115.806.806,0,0,0,.159-.021q.1-.021.2-.051t.2-.069l.177-.069-.159.738a2.486,2.486,0,0,1-.408.131,1.888,1.888,0,0,1-.433.054,1.466,1.466,0,0,1-.5-.074.852.852,0,0,1-.336-.213.824.824,0,0,1-.19-.336,1.548,1.548,0,0,1-.059-.443,2.486,2.486,0,0,1,.028-.346,3.587,3.587,0,0,1,.069-.361l.6-2.856H8.959L9.118.75h.861l.272-1.282a1.58,1.58,0,0,1,.156-.049l.3-.087.3-.09L11.153-.8,10.83.75h1.323Z" transform="translate(1022.998 1642.5)" fill="#212429"/>
    <path id="Trazado_1031949" data-name="Trazado 1031949" d="M-22.405-4.447h-4.8V-5.581h4.8Zm17.731-6.064q-.255-.167-.584-.343a5.345,5.345,0,0,0-.725-.316,5.725,5.725,0,0,0-.866-.229,5.476,5.476,0,0,0-1.006-.088,5.845,5.845,0,0,0-2.377.466,5.219,5.219,0,0,0-1.8,1.283,5.758,5.758,0,0,0-1.138,1.92,6.95,6.95,0,0,0-.4,2.386,5.439,5.439,0,0,0,.29,1.85,3.707,3.707,0,0,0,.826,1.354,3.482,3.482,0,0,0,1.283.831,4.657,4.657,0,0,0,1.652.281,7.707,7.707,0,0,0,1.055-.066,6.107,6.107,0,0,0,.879-.185,5.671,5.671,0,0,0,.76-.281q.356-.163.69-.347L-6.476-.448A7.264,7.264,0,0,1-8,.048,8.872,8.872,0,0,1-9.824.22,5.763,5.763,0,0,1-12-.176,4.7,4.7,0,0,1-13.67-1.3a5.033,5.033,0,0,1-1.068-1.745,6.483,6.483,0,0,1-.378-2.268,8.492,8.492,0,0,1,.523-3.032,6.854,6.854,0,0,1,1.485-2.373A6.737,6.737,0,0,1-10.8-12.261,7.812,7.812,0,0,1-7.8-12.814a7.425,7.425,0,0,1,1.991.242,7.813,7.813,0,0,1,1.463.549ZM.816.7q0,.384-.036.8t-.113.843a8.495,8.495,0,0,1-.2.843A6.653,6.653,0,0,1,.18,4a5.458,5.458,0,0,1-.387.736,3.883,3.883,0,0,1-.49.628,2.371,2.371,0,0,1-1.774.769,1.778,1.778,0,0,1-.761-.161A1.627,1.627,0,0,1-3.823,5.5a2.256,2.256,0,0,1-.382-.764,3.643,3.643,0,0,1-.136-1.043,7.834,7.834,0,0,1,.092-1.177,7.286,7.286,0,0,1,.282-1.184A6.411,6.411,0,0,1-3.5.238a4.062,4.062,0,0,1,.666-.9,2.71,2.71,0,0,1,.815-.6,2.364,2.364,0,0,1,1.02-.213,1.921,1.921,0,0,1,.743.138,1.521,1.521,0,0,1,.572.413,1.889,1.889,0,0,1,.367.679A3.133,3.133,0,0,1,.816.7ZM-.035.771A2.041,2.041,0,0,0-.3-.354a.868.868,0,0,0-.774-.408,1.275,1.275,0,0,0-.569.131,1.938,1.938,0,0,0-.523.392,2.961,2.961,0,0,0-.377.5,5.112,5.112,0,0,0-.323.625,6.6,6.6,0,0,0-.259.7q-.113.369-.192.738t-.12.723a5.762,5.762,0,0,0-.041.661A3.033,3.033,0,0,0-3.4,4.48a1.605,1.605,0,0,0,.233.528.927.927,0,0,0,.351.305.986.986,0,0,0,.433.1,1.285,1.285,0,0,0,.543-.123,1.609,1.609,0,0,0,.5-.369,3.305,3.305,0,0,0,.508-.756A6.751,6.751,0,0,0-.417,3.139,8.561,8.561,0,0,0-.137,1.968,7.246,7.246,0,0,0-.035.771Zm5.083,1.42V1.5H9.867v.687Zm0,2.184V3.688H9.867v.687ZM23.467-9.088q0,.659-.062,1.375t-.193,1.446a14.564,14.564,0,0,1-.338,1.446,11.4,11.4,0,0,1-.5,1.384,9.357,9.357,0,0,1-.664,1.261A6.657,6.657,0,0,1,20.874-1.1,4.066,4.066,0,0,1,17.833.22a3.048,3.048,0,0,1-1.305-.277,2.789,2.789,0,0,1-1.015-.809,3.868,3.868,0,0,1-.655-1.31,6.245,6.245,0,0,1-.233-1.789,13.43,13.43,0,0,1,.158-2.017,12.49,12.49,0,0,1,.483-2.03,10.99,10.99,0,0,1,.809-1.868,6.964,6.964,0,0,1,1.143-1.547,4.646,4.646,0,0,1,1.4-1.024,4.052,4.052,0,0,1,1.749-.365,3.293,3.293,0,0,1,1.274.237,2.607,2.607,0,0,1,.98.708,3.239,3.239,0,0,1,.628,1.165A5.371,5.371,0,0,1,23.467-9.088Zm-1.459.123a3.5,3.5,0,0,0-.457-1.929,1.489,1.489,0,0,0-1.327-.7,2.187,2.187,0,0,0-.976.224,3.322,3.322,0,0,0-.9.672,5.076,5.076,0,0,0-.646.857,8.765,8.765,0,0,0-.554,1.072,11.31,11.31,0,0,0-.444,1.208q-.193.633-.33,1.266t-.207,1.239A9.878,9.878,0,0,0,16.1-3.92a5.2,5.2,0,0,0,.145,1.314,2.752,2.752,0,0,0,.4.905,1.589,1.589,0,0,0,.6.523,1.691,1.691,0,0,0,.743.167,2.2,2.2,0,0,0,.932-.211,2.758,2.758,0,0,0,.853-.633,5.666,5.666,0,0,0,.87-1.3A11.573,11.573,0,0,0,21.353-4.9a14.676,14.676,0,0,0,.479-2.008A12.423,12.423,0,0,0,22.008-8.965Z" transform="translate(1108.998 1655.55)" fill="#212429"/>
    <path id="Trazado_1031950" data-name="Trazado 1031950" d="M-30.286,2.865h-1.283a11.232,11.232,0,0,1-2.725-7.673,11.658,11.658,0,0,1,2.725-7.8h1.3a11.845,11.845,0,0,0-2.76,7.778A11.638,11.638,0,0,0-30.286,2.865ZM-23.727,0h-1.441V-10.89a3.336,3.336,0,0,1-.488.382,7.951,7.951,0,0,1-.721.426q-.4.211-.844.4a6.132,6.132,0,0,1-.866.29v-1.459a8.379,8.379,0,0,0,1.006-.356q.532-.224,1.046-.5t.971-.58a7.71,7.71,0,0,0,.791-.593h.545ZM-5.152-4.658H-8.7v3.542H-9.872V-4.658h-3.542V-5.836h3.542V-9.378H-8.7v3.542h3.551Zm17.406-6.609H8.668L6.295,0H4.783L7.174-11.268H3.509L3.79-12.6h8.754ZM13.424,0H11.913l2.663-12.6h1.529Zm12.9-9.483a3.677,3.677,0,0,1-.286,1.477,3.41,3.41,0,0,1-.787,1.134,3.843,3.843,0,0,1-1.2.76,5.1,5.1,0,0,1-1.512.356v.035a1.459,1.459,0,0,1,.725.554,3.405,3.405,0,0,1,.505,1.134L24.834,0H23.217l-.932-3.762a2.28,2.28,0,0,0-.646-1.213,1.722,1.722,0,0,0-1.173-.387h-1.1L18.216,0H16.7l2.663-12.6h3.472a4.532,4.532,0,0,1,1.582.246,2.941,2.941,0,0,1,1.081.672,2.67,2.67,0,0,1,.624.993A3.571,3.571,0,0,1,26.329-9.483Zm-1.547.158a2.223,2.223,0,0,0-.132-.778,1.61,1.61,0,0,0-.4-.615,1.874,1.874,0,0,0-.694-.4,3.091,3.091,0,0,0-1-.145H20.607L19.64-6.7h1.74a4.9,4.9,0,0,0,1.569-.22A3.069,3.069,0,0,0,24-7.5a2.131,2.131,0,0,0,.593-.839A2.727,2.727,0,0,0,24.782-9.325Zm3.245,12.19H26.743a11.638,11.638,0,0,0,2.742-7.69,11.845,11.845,0,0,0-2.76-7.778h1.3a11.611,11.611,0,0,1,2.742,7.8A11.188,11.188,0,0,1,28.027,2.865Zm7.225-8.917a1.621,1.621,0,0,1-.784.164q-1.379,0-1.379-1.538v-3.107h-.9v-.718h.9v-1.282l.841-.272v1.553h1.323v.718H33.929v2.958a1.226,1.226,0,0,0,.179.754.716.716,0,0,0,.595.226.884.884,0,0,0,.549-.174Z" transform="translate(1022.998 1670.5)" fill="#212429"/>
    <path id="Trazado_1031594" data-name="Trazado 1031594" d="M-.945,13.86V-12.69H2.709v1.92H.5V11.94H2.709v1.92Z" transform="translate(974 1650.69)" fill="#212429"/>
    <path id="Trazado_1031596" data-name="Trazado 1031596" d="M2.709,13.86V-12.69H-.945v1.92H1.269V11.94H-.945v1.92Z" transform="translate(1072 1650.69)" fill="#212429"/>
    <path id="Trazado_1031595" data-name="Trazado 1031595" d="M-92.025,871.275h77.4" transform="translate(1076.495 780)" fill="none" stroke="#212429" stroke-width="1"/>
  </g>
</svg>
