<svg xmlns="http://www.w3.org/2000/svg" width="179.465" height="43.68" viewBox="0 0 179.465 43.68">
  <g id="Grupo_1174046" data-name="Grupo 1174046" transform="translate(-392.686 -895.447)">
    <path id="Trazado_1031936" data-name="Trazado 1031936" d="M-25.451-12.6-30.118,0h-1.626l-4.57-12.6h1.644l3.489,9.993a5.933,5.933,0,0,1,.255,1.116h.035a5.475,5.475,0,0,1,.29-1.134l3.56-9.976Zm3.289,7.84V0h-1.477V-12.6h3.463a4.571,4.571,0,0,1,3.133.984A3.515,3.515,0,0,1-15.93-8.842a3.82,3.82,0,0,1-1.235,2.936A4.718,4.718,0,0,1-20.5-4.764Zm0-6.5V-6.1h1.547a3.458,3.458,0,0,0,2.333-.7,2.474,2.474,0,0,0,.8-1.973q0-2.5-2.953-2.5ZM-3.4,0H-5.206l-6.486-10.046a4.2,4.2,0,0,1-.4-.791h-.053a12.976,12.976,0,0,1,.07,1.731V0h-1.477V-12.6h1.916l6.311,9.888q.4.615.51.844h.035a13.335,13.335,0,0,1-.088-1.854V-12.6H-3.4ZM13.492-6.539H5.23V-7.7h8.262Zm0,3.744H5.23v-1.16h8.262ZM31.074,4.122H20.887V3.437l5.941-7.761-5.616-7.488V-12.6h9.51v1.354H23.375L28.6-4.359,23.1,2.777h7.972Z" transform="translate(429 921.761)" fill="#212429"/>
    <path id="Trazado_1031937" data-name="Trazado 1031937" d="M-.2-10.512q-.255-.167-.584-.343a5.345,5.345,0,0,0-.725-.316A5.725,5.725,0,0,0-2.38-11.4a5.476,5.476,0,0,0-1.006-.088,5.845,5.845,0,0,0-2.377.466,5.219,5.219,0,0,0-1.8,1.283A5.758,5.758,0,0,0-8.7-7.818a6.95,6.95,0,0,0-.4,2.386,5.439,5.439,0,0,0,.29,1.85,3.707,3.707,0,0,0,.826,1.354A3.482,3.482,0,0,0-6.7-1.4a4.657,4.657,0,0,0,1.652.281,7.707,7.707,0,0,0,1.055-.066,6.107,6.107,0,0,0,.879-.185,5.671,5.671,0,0,0,.76-.281Q-2-1.811-1.664-2L-2.006-.448a7.264,7.264,0,0,1-1.525.5A8.872,8.872,0,0,1-5.355.22a5.763,5.763,0,0,1-2.175-.4A4.7,4.7,0,0,1-9.2-1.3a5.033,5.033,0,0,1-1.068-1.745,6.483,6.483,0,0,1-.378-2.268,8.492,8.492,0,0,1,.523-3.032,6.854,6.854,0,0,1,1.485-2.373,6.737,6.737,0,0,1,2.312-1.547,7.812,7.812,0,0,1,2.993-.554,7.425,7.425,0,0,1,1.991.242,7.813,7.813,0,0,1,1.463.549Zm9.274-.721H4.209L3.278-6.926H7.8l-.29,1.362H2.988L1.819,0H.307L2.97-12.6H9.36Zm2.924,12.7H10.671l-.59,2.784q-.031.159-.062.343a1.9,1.9,0,0,0-.031.3.518.518,0,0,0,.115.377.5.5,0,0,0,.367.115.806.806,0,0,0,.159-.021q.1-.021.2-.051t.2-.069l.177-.069-.159.738a2.486,2.486,0,0,1-.408.131,1.888,1.888,0,0,1-.433.054,1.466,1.466,0,0,1-.5-.074.852.852,0,0,1-.336-.213.824.824,0,0,1-.19-.336,1.548,1.548,0,0,1-.059-.443,2.486,2.486,0,0,1,.028-.346,3.587,3.587,0,0,1,.069-.361l.6-2.856H8.959L9.118.75h.861l.272-1.282a1.58,1.58,0,0,1,.156-.049l.3-.087.3-.09L11.153-.8,10.83.75h1.323Z" transform="translate(502.998 908.261)" fill="#212429"/>
    <path id="Trazado_1031938" data-name="Trazado 1031938" d="M-11.068-4.447h-4.8V-5.581h4.8ZM6.663-10.512q-.255-.167-.584-.343a5.345,5.345,0,0,0-.725-.316,5.725,5.725,0,0,0-.866-.229,5.476,5.476,0,0,0-1.006-.088,5.845,5.845,0,0,0-2.377.466,5.219,5.219,0,0,0-1.8,1.283,5.758,5.758,0,0,0-1.138,1.92,6.95,6.95,0,0,0-.4,2.386,5.439,5.439,0,0,0,.29,1.85,3.707,3.707,0,0,0,.826,1.354A3.482,3.482,0,0,0,.168-1.4a4.657,4.657,0,0,0,1.652.281,7.707,7.707,0,0,0,1.055-.066,6.107,6.107,0,0,0,.879-.185,5.671,5.671,0,0,0,.76-.281Q4.87-1.811,5.2-2L4.861-.448a7.264,7.264,0,0,1-1.525.5A8.872,8.872,0,0,1,1.512.22a5.763,5.763,0,0,1-2.175-.4A4.7,4.7,0,0,1-2.333-1.3,5.033,5.033,0,0,1-3.4-3.041a6.483,6.483,0,0,1-.378-2.268,8.492,8.492,0,0,1,.523-3.032A6.854,6.854,0,0,1-1.77-10.714,6.737,6.737,0,0,1,.541-12.261a7.812,7.812,0,0,1,2.993-.554,7.425,7.425,0,0,1,1.991.242,7.813,7.813,0,0,1,1.463.549ZM12.153.7q0,.384-.036.8T12,2.345a8.5,8.5,0,0,1-.2.843,6.653,6.653,0,0,1-.29.807,5.458,5.458,0,0,1-.387.736,3.883,3.883,0,0,1-.49.628,2.371,2.371,0,0,1-1.774.769,1.778,1.778,0,0,1-.761-.161A1.627,1.627,0,0,1,7.513,5.5a2.256,2.256,0,0,1-.382-.764A3.643,3.643,0,0,1,7,3.688a7.834,7.834,0,0,1,.092-1.177A7.286,7.286,0,0,1,7.37,1.327,6.411,6.411,0,0,1,7.841.238a4.062,4.062,0,0,1,.666-.9,2.71,2.71,0,0,1,.815-.6,2.364,2.364,0,0,1,1.02-.213,1.921,1.921,0,0,1,.743.138,1.521,1.521,0,0,1,.572.413,1.889,1.889,0,0,1,.367.679A3.133,3.133,0,0,1,12.153.7ZM11.3.771a2.041,2.041,0,0,0-.267-1.125.868.868,0,0,0-.774-.408,1.275,1.275,0,0,0-.569.131,1.938,1.938,0,0,0-.523.392,2.961,2.961,0,0,0-.377.5,5.112,5.112,0,0,0-.323.625,6.6,6.6,0,0,0-.259.7q-.113.369-.192.738t-.12.723a5.762,5.762,0,0,0-.041.661,3.033,3.033,0,0,0,.085.766,1.605,1.605,0,0,0,.233.528.927.927,0,0,0,.351.305.986.986,0,0,0,.433.1A1.285,1.285,0,0,0,9.5,5.287a1.609,1.609,0,0,0,.5-.369,3.305,3.305,0,0,0,.508-.756,6.751,6.751,0,0,0,.413-1.023A8.561,8.561,0,0,0,11.2,1.968,7.246,7.246,0,0,0,11.3.771Z" transform="translate(559.998 921.311)" fill="#212429"/>
    <path id="Trazado_1031939" data-name="Trazado 1031939" d="M-13.385,2.865h-1.283a11.232,11.232,0,0,1-2.725-7.673,11.658,11.658,0,0,1,2.725-7.8h1.3a11.845,11.845,0,0,0-2.76,7.778A11.638,11.638,0,0,0-13.385,2.865ZM-6.827,0H-8.268V-10.89a3.336,3.336,0,0,1-.488.382,7.951,7.951,0,0,1-.721.426q-.4.211-.844.4a6.132,6.132,0,0,1-.866.29v-1.459a8.379,8.379,0,0,0,1.006-.356q.532-.224,1.046-.5t.971-.58a7.71,7.71,0,0,0,.791-.593h.545ZM6.816-4.658H3.265v3.542H2.1V-4.658H-1.446V-5.836H2.1V-9.378H3.265v3.542H6.816Zm4.212-6.627a.913.913,0,0,1-.659-.264.89.89,0,0,1-.272-.668.9.9,0,0,1,.272-.672.905.905,0,0,1,.659-.268.931.931,0,0,1,.672.268.9.9,0,0,1,.277.672.891.891,0,0,1-.277.659A.923.923,0,0,1,11.028-11.285ZM11.731,0H10.289V-9h1.441Zm2.955,2.865H13.4a11.638,11.638,0,0,0,2.742-7.69,11.845,11.845,0,0,0-2.76-7.778h1.3a11.611,11.611,0,0,1,2.742,7.8A11.188,11.188,0,0,1,14.686,2.865Z" transform="translate(502.998 936.261)" fill="#212429"/>
    <path id="Trazado_1031594" data-name="Trazado 1031594" d="M-.945,13.86V-12.69H2.709v1.92H.5V11.94H2.709v1.92Z" transform="translate(470 916.451)" fill="#212429"/>
    <path id="Trazado_1031596" data-name="Trazado 1031596" d="M2.709,13.86V-12.69H-.945v1.92H1.269V11.94H-.945v1.92Z" transform="translate(536 916.451)" fill="#212429"/>
    <path id="Trazado_1031595" data-name="Trazado 1031595" d="M-92.025,871.275h55.047" transform="translate(567.5 45.761)" fill="none" stroke="#212429" stroke-width="1"/>
  </g>
</svg>
