<svg xmlns="http://www.w3.org/2000/svg" width="303.48" height="46.942" viewBox="0 0 303.48 46.942">
  <g id="Grupo_1174049" data-name="Grupo 1174049" transform="translate(-900.385 -5679.2)">
    <path id="Trazado_1031951" data-name="Trazado 1031951" d="M-23.87-11.268h-3.586L-29.828,0H-31.34l2.391-11.268h-3.665l.281-1.336h8.754ZM-22.7,0H-24.21l2.663-12.6h1.529Zm12.9-9.483a3.677,3.677,0,0,1-.286,1.477,3.41,3.41,0,0,1-.787,1.134,3.843,3.843,0,0,1-1.2.76,5.1,5.1,0,0,1-1.512.356v.035a1.459,1.459,0,0,1,.725.554,3.405,3.405,0,0,1,.505,1.134L-11.289,0h-1.617l-.932-3.762a2.28,2.28,0,0,0-.646-1.213,1.722,1.722,0,0,0-1.173-.387h-1.1L-17.907,0h-1.512l2.663-12.6h3.472a4.532,4.532,0,0,1,1.582.246,2.941,2.941,0,0,1,1.081.672,2.67,2.67,0,0,1,.624.993A3.571,3.571,0,0,1-9.795-9.483Zm-1.547.158a2.223,2.223,0,0,0-.132-.778,1.61,1.61,0,0,0-.4-.615,1.874,1.874,0,0,0-.694-.4,3.091,3.091,0,0,0-1-.145h-1.942l-.967,4.57h1.74a4.9,4.9,0,0,0,1.569-.22,3.069,3.069,0,0,0,1.055-.58,2.131,2.131,0,0,0,.593-.839A2.727,2.727,0,0,0-11.341-9.325ZM-.81,0l-.571-3.524H-6.725L-8.764,0H-10.5L-3-12.6h1.547L.745,0ZM-2.428-10.222q-.009-.088-.013-.2t0-.229q0-.123,0-.229t0-.193H-2.48q-.026.079-.07.189t-.1.229q-.053.119-.11.233l-.1.2L-5.97-4.86h4.351ZM17.017-6.539H8.756V-7.7h8.262Zm0,3.744H8.756v-1.16h8.262ZM29.2,2.865H27.919a11.232,11.232,0,0,1-2.725-7.673,11.658,11.658,0,0,1,2.725-7.8h1.3a11.845,11.845,0,0,0-2.76,7.778A11.638,11.638,0,0,0,29.2,2.865Z" transform="translate(933 5705.515)" fill="#212429"/>
    <path id="Trazado_1031952" data-name="Trazado 1031952" d="M1.493-10.512q-.255-.167-.584-.343a5.345,5.345,0,0,0-.725-.316A5.725,5.725,0,0,0-.682-11.4a5.476,5.476,0,0,0-1.006-.088,5.845,5.845,0,0,0-2.377.466,5.219,5.219,0,0,0-1.8,1.283A5.758,5.758,0,0,0-7-7.818a6.95,6.95,0,0,0-.4,2.386,5.439,5.439,0,0,0,.29,1.85,3.707,3.707,0,0,0,.826,1.354A3.482,3.482,0,0,0-5-1.4a4.657,4.657,0,0,0,1.652.281,7.707,7.707,0,0,0,1.055-.066,6.107,6.107,0,0,0,.879-.185,5.671,5.671,0,0,0,.76-.281Q-.3-1.811.034-2L-.309-.448a7.264,7.264,0,0,1-1.525.5A8.872,8.872,0,0,1-3.657.22a5.763,5.763,0,0,1-2.175-.4A4.7,4.7,0,0,1-7.5-1.3,5.033,5.033,0,0,1-8.57-3.041a6.483,6.483,0,0,1-.378-2.268,8.492,8.492,0,0,1,.523-3.032A6.854,6.854,0,0,1-6.94-10.714a6.737,6.737,0,0,1,2.312-1.547,7.812,7.812,0,0,1,2.993-.554,7.425,7.425,0,0,1,1.991.242,7.813,7.813,0,0,1,1.463.549Zm9.274-.721H5.907L4.976-6.926H9.493L9.2-5.563H4.685L3.517,0H2L4.668-12.6h6.39Z" transform="translate(1002.91 5692.015)" fill="#212429"/>
    <path id="Trazado_1031953" data-name="Trazado 1031953" d="M-42.664,2.069A1.745,1.745,0,0,1-44.613.1V-1.8q0-1.282-.99-1.346v-.736q.99-.063.99-1.371V-7.109A1.756,1.756,0,0,1-42.664-9.1v.813q-1.009.025-1.009,1.257v1.86q0,1.333-.952,1.638v.025q.952.286.952,1.625V-.051A1.718,1.718,0,0,0-43.448.955a.947.947,0,0,0,.784.314Zm7.2-10.182h-3.51L-39.648-5h3.263l-.209.984h-3.263L-40.7,0h-1.092l1.923-9.1h4.615Zm2.2,8.087a2.433,2.433,0,0,1-.359.083,2.527,2.527,0,0,1-.4.032,1.3,1.3,0,0,1-.958-.321,1.169,1.169,0,0,1-.317-.86,2.622,2.622,0,0,1,.032-.375q.032-.216.1-.533l1.625-7.63h1.054l-1.631,7.655q-.057.267-.079.413a1.689,1.689,0,0,0-.022.248.523.523,0,0,0,.143.4.64.64,0,0,0,.454.136A1.922,1.922,0,0,0-33.334-.8,1.28,1.28,0,0,0-33.1-.857Zm6.628-1.822q-.057.248-.1.514l-.092.514q-.044.248-.076.463T-26.962,0h-1.016q.032-.248.073-.517t.079-.5q.044-.267.083-.521h-.025a5.368,5.368,0,0,1-.492.657,3.681,3.681,0,0,1-.584.54,2.773,2.773,0,0,1-.667.365,2.055,2.055,0,0,1-.733.133,1.906,1.906,0,0,1-.733-.13A1.415,1.415,0,0,1-31.5-.336,1.532,1.532,0,0,1-31.815-.9a2.428,2.428,0,0,1-.1-.736,1.788,1.788,0,0,1,.025-.248q.025-.165.057-.355t.073-.378q.041-.187.067-.321l.755-3.561h1.054l-.806,3.809q-.025.1-.051.235t-.048.267q-.022.133-.035.244a1.633,1.633,0,0,0-.013.175,1.16,1.16,0,0,0,.232.759.847.847,0,0,0,.7.282,1.465,1.465,0,0,0,.559-.114,2.542,2.542,0,0,0,.543-.308,3.415,3.415,0,0,0,.5-.451,4.4,4.4,0,0,0,.425-.546,3.964,3.964,0,0,0,.324-.594,3.273,3.273,0,0,0,.2-.584L-26.69-6.5h1.047ZM-23.857-.3a5.492,5.492,0,0,1-1.082,2.514,2.4,2.4,0,0,1-1.895.838,2.278,2.278,0,0,1-.232-.013A2.5,2.5,0,0,1-27.313,3q-.124-.025-.241-.06a1.543,1.543,0,0,1-.213-.079l.184-.978a1.66,1.66,0,0,0,.178.1,2,2,0,0,0,.216.092,1.8,1.8,0,0,0,.232.067,1.04,1.04,0,0,0,.219.025,1.366,1.366,0,0,0,1.1-.565A4.065,4.065,0,0,0-24.949-.1l1.365-6.4h1.041ZM-21.9-8.817a.683.683,0,0,1-.194.489.636.636,0,0,1-.479.2.675.675,0,0,1-.486-.2.658.658,0,0,1-.206-.492.609.609,0,0,1,.206-.476.706.706,0,0,1,.486-.184.666.666,0,0,1,.476.187A.625.625,0,0,1-21.9-8.817Zm6.2,4.723a5.41,5.41,0,0,1-.244,1.638,4.187,4.187,0,0,1-.7,1.355,3.4,3.4,0,0,1-1.117.92,3.18,3.18,0,0,1-1.482.34,2.706,2.706,0,0,1-1.006-.178,2.093,2.093,0,0,1-.762-.511,2.264,2.264,0,0,1-.482-.806,3.179,3.179,0,0,1-.168-1.07,5.3,5.3,0,0,1,.257-1.673,4.224,4.224,0,0,1,.724-1.352,3.381,3.381,0,0,1,1.117-.9,3.157,3.157,0,0,1,1.438-.327,2.688,2.688,0,0,1,1,.178,2.124,2.124,0,0,1,.765.511,2.314,2.314,0,0,1,.492.806A3.073,3.073,0,0,1-15.7-4.094Zm-1.066.051a2.427,2.427,0,0,0-.1-.733,1.56,1.56,0,0,0-.286-.54,1.239,1.239,0,0,0-.444-.336,1.4,1.4,0,0,0-.584-.117,1.846,1.846,0,0,0-1.009.286,2.554,2.554,0,0,0-.762.752,3.73,3.73,0,0,0-.479,1.06A4.436,4.436,0,0,0-20.6-2.457a2.428,2.428,0,0,0,.1.714,1.621,1.621,0,0,0,.279.546,1.206,1.206,0,0,0,.444.346,1.41,1.41,0,0,0,.594.121,1.873,1.873,0,0,0,1.016-.282,2.518,2.518,0,0,0,.762-.749,3.661,3.661,0,0,0,.476-1.063A4.551,4.551,0,0,0-16.766-4.043ZM-10.6-5.357a2.705,2.705,0,0,0-.641-.3,2.312,2.312,0,0,0-.711-.114,1.4,1.4,0,0,0-.924.273.9.9,0,0,0-.327.724.907.907,0,0,0,.06.336,1.016,1.016,0,0,0,.178.289,1.613,1.613,0,0,0,.3.263q.181.127.416.273a3.272,3.272,0,0,1,1.025.847,1.633,1.633,0,0,1,.314.981,1.979,1.979,0,0,1-.136.72,1.623,1.623,0,0,1-.435.622,2.23,2.23,0,0,1-.771.435,3.519,3.519,0,0,1-1.152.165,3.817,3.817,0,0,1-.419-.025,4.438,4.438,0,0,1-.46-.076,4.015,4.015,0,0,1-.444-.124A1.956,1.956,0,0,1-15.1-.235l.209-.99a2.187,2.187,0,0,0,.314.178,3.249,3.249,0,0,0,.406.159,3.8,3.8,0,0,0,.457.114,2.572,2.572,0,0,0,.473.044,1.49,1.49,0,0,0,.949-.254.856.856,0,0,0,.314-.7.939.939,0,0,0-.048-.3.855.855,0,0,0-.168-.279,1.867,1.867,0,0,0-.317-.282q-.2-.143-.5-.321a3.207,3.207,0,0,1-.955-.822,1.618,1.618,0,0,1-.308-.968,1.976,1.976,0,0,1,.146-.752,1.82,1.82,0,0,1,.435-.635,2.115,2.115,0,0,1,.727-.441,2.892,2.892,0,0,1,1.022-.165,4.077,4.077,0,0,1,.866.089,3.076,3.076,0,0,1,.7.229ZM.974-6.709A3.494,3.494,0,0,1,.745-5.443a2.813,2.813,0,0,1-.7,1.038,3.307,3.307,0,0,1-1.184.7,5.006,5.006,0,0,1-1.688.257H-4.206L-4.93,0H-6.021L-4.1-9.1h2.355A3.465,3.465,0,0,1-.5-8.9a2.347,2.347,0,0,1,.844.533A2.026,2.026,0,0,1,.825-7.6,2.721,2.721,0,0,1,.974-6.709Zm-1.124.1A1.614,1.614,0,0,0-.267-7.24a1.291,1.291,0,0,0-.346-.482,1.574,1.574,0,0,0-.568-.308,2.591,2.591,0,0,0-.784-.108H-3.2L-4-4.405h1.276a3.551,3.551,0,0,0,1.158-.168,2.2,2.2,0,0,0,.8-.463,1.805,1.805,0,0,0,.463-.7A2.514,2.514,0,0,0-.15-6.614Zm7.6,2.52a5.41,5.41,0,0,1-.244,1.638A4.187,4.187,0,0,1,6.5-1.1a3.4,3.4,0,0,1-1.117.92A3.18,3.18,0,0,1,3.9.159,2.706,2.706,0,0,1,2.9-.019,2.093,2.093,0,0,1,2.133-.53a2.264,2.264,0,0,1-.482-.806,3.179,3.179,0,0,1-.168-1.07A5.3,5.3,0,0,1,1.74-4.078,4.224,4.224,0,0,1,2.464-5.43a3.381,3.381,0,0,1,1.117-.9,3.157,3.157,0,0,1,1.438-.327,2.688,2.688,0,0,1,1,.178,2.124,2.124,0,0,1,.765.511,2.314,2.314,0,0,1,.492.806A3.073,3.073,0,0,1,7.45-4.094Zm-1.066.051a2.427,2.427,0,0,0-.1-.733A1.56,1.56,0,0,0,6-5.316a1.239,1.239,0,0,0-.444-.336,1.4,1.4,0,0,0-.584-.117,1.846,1.846,0,0,0-1.009.286,2.554,2.554,0,0,0-.762.752,3.73,3.73,0,0,0-.479,1.06,4.436,4.436,0,0,0-.168,1.216,2.428,2.428,0,0,0,.1.714,1.621,1.621,0,0,0,.279.546,1.206,1.206,0,0,0,.444.346,1.41,1.41,0,0,0,.594.121A1.873,1.873,0,0,0,4.98-1.012a2.518,2.518,0,0,0,.762-.749,3.661,3.661,0,0,0,.476-1.063A4.551,4.551,0,0,0,6.383-4.043Zm6.165-1.314a2.705,2.705,0,0,0-.641-.3A2.312,2.312,0,0,0,11.2-5.77a1.4,1.4,0,0,0-.924.273.9.9,0,0,0-.327.724.907.907,0,0,0,.06.336,1.016,1.016,0,0,0,.178.289,1.613,1.613,0,0,0,.3.263q.181.127.416.273a3.272,3.272,0,0,1,1.025.847,1.633,1.633,0,0,1,.314.981,1.979,1.979,0,0,1-.136.72,1.623,1.623,0,0,1-.435.622,2.23,2.23,0,0,1-.771.435A3.519,3.519,0,0,1,9.742.159,3.817,3.817,0,0,1,9.323.133a4.438,4.438,0,0,1-.46-.076,4.015,4.015,0,0,1-.444-.124,1.956,1.956,0,0,1-.371-.168l.209-.99a2.187,2.187,0,0,0,.314.178,3.249,3.249,0,0,0,.406.159,3.8,3.8,0,0,0,.457.114,2.572,2.572,0,0,0,.473.044,1.49,1.49,0,0,0,.949-.254.856.856,0,0,0,.314-.7.939.939,0,0,0-.048-.3.855.855,0,0,0-.168-.279,1.867,1.867,0,0,0-.317-.282q-.2-.143-.5-.321A3.207,3.207,0,0,1,9.187-3.7a1.618,1.618,0,0,1-.308-.968,1.976,1.976,0,0,1,.146-.752,1.82,1.82,0,0,1,.435-.635,2.115,2.115,0,0,1,.727-.441,2.892,2.892,0,0,1,1.022-.165,4.077,4.077,0,0,1,.866.089,3.076,3.076,0,0,1,.7.229ZM15.723-.025a2.433,2.433,0,0,1-.359.083,2.527,2.527,0,0,1-.4.032,1.3,1.3,0,0,1-.958-.321,1.169,1.169,0,0,1-.317-.86,2.622,2.622,0,0,1,.032-.375q.032-.216.1-.533l.946-4.5h1.054l-.952,4.526q-.057.267-.079.413a1.689,1.689,0,0,0-.022.248.523.523,0,0,0,.143.4.64.64,0,0,0,.454.136A1.922,1.922,0,0,0,15.657-.8a1.28,1.28,0,0,0,.232-.057Zm.743-8.792a.683.683,0,0,1-.194.489.636.636,0,0,1-.479.2.675.675,0,0,1-.486-.2.658.658,0,0,1-.206-.492.609.609,0,0,1,.206-.476.706.706,0,0,1,.486-.184.666.666,0,0,1,.476.187A.625.625,0,0,1,16.466-8.817Zm4.362,3.2H19.19l-.73,3.447q-.038.2-.076.425a2.35,2.35,0,0,0-.038.368.641.641,0,0,0,.143.467.621.621,0,0,0,.454.143,1,1,0,0,0,.2-.025q.121-.025.248-.063t.251-.086l.219-.086-.2.914a3.078,3.078,0,0,1-.5.162,2.338,2.338,0,0,1-.536.067A1.815,1.815,0,0,1,18,.022a1.055,1.055,0,0,1-.416-.263,1.02,1.02,0,0,1-.235-.416,1.916,1.916,0,0,1-.073-.549,3.078,3.078,0,0,1,.035-.428,4.442,4.442,0,0,1,.086-.448l.749-3.536H17.07l.2-.882h1.066l.336-1.587a1.957,1.957,0,0,1,.194-.06q.168-.048.368-.108l.368-.111.187-.057-.4,1.923h1.638ZM23.292-.025a2.433,2.433,0,0,1-.359.083,2.527,2.527,0,0,1-.4.032,1.3,1.3,0,0,1-.958-.321,1.169,1.169,0,0,1-.317-.86,2.622,2.622,0,0,1,.032-.375q.032-.216.1-.533l.946-4.5h1.054l-.952,4.526q-.057.267-.079.413a1.689,1.689,0,0,0-.022.248.523.523,0,0,0,.143.4.64.64,0,0,0,.454.136A1.922,1.922,0,0,0,23.226-.8a1.28,1.28,0,0,0,.232-.057Zm.743-8.792a.683.683,0,0,1-.194.489.636.636,0,0,1-.479.2.675.675,0,0,1-.486-.2.658.658,0,0,1-.206-.492.609.609,0,0,1,.206-.476.706.706,0,0,1,.486-.184.666.666,0,0,1,.476.187A.625.625,0,0,1,24.035-8.817ZM26.8,0h-.882L24.887-6.5h1.054l.571,4.094q.019.121.035.273t.032.311q.016.159.022.311t.006.273h.025q.051-.114.117-.26t.149-.3l.168-.314q.086-.159.162-.292L29.552-6.5h1.187Zm9.834-4.094a5.41,5.41,0,0,1-.244,1.638,4.187,4.187,0,0,1-.7,1.355,3.4,3.4,0,0,1-1.117.92,3.18,3.18,0,0,1-1.482.34,2.706,2.706,0,0,1-1.006-.178,2.093,2.093,0,0,1-.762-.511,2.264,2.264,0,0,1-.482-.806,3.179,3.179,0,0,1-.168-1.07,5.3,5.3,0,0,1,.257-1.673,4.224,4.224,0,0,1,.724-1.352,3.381,3.381,0,0,1,1.117-.9A3.157,3.157,0,0,1,34.2-6.659a2.688,2.688,0,0,1,1,.178,2.124,2.124,0,0,1,.765.511,2.314,2.314,0,0,1,.492.806A3.073,3.073,0,0,1,36.631-4.094Zm-1.066.051a2.427,2.427,0,0,0-.1-.733,1.56,1.56,0,0,0-.286-.54,1.239,1.239,0,0,0-.444-.336,1.4,1.4,0,0,0-.584-.117,1.846,1.846,0,0,0-1.009.286,2.554,2.554,0,0,0-.762.752,3.73,3.73,0,0,0-.479,1.06,4.436,4.436,0,0,0-.168,1.216,2.428,2.428,0,0,0,.1.714,1.621,1.621,0,0,0,.279.546,1.206,1.206,0,0,0,.444.346,1.41,1.41,0,0,0,.594.121,1.873,1.873,0,0,0,1.016-.282,2.518,2.518,0,0,0,.762-.749A3.661,3.661,0,0,0,35.4-2.825,4.551,4.551,0,0,0,35.565-4.043ZM41.73-5.357a2.705,2.705,0,0,0-.641-.3,2.312,2.312,0,0,0-.711-.114,1.4,1.4,0,0,0-.924.273.9.9,0,0,0-.327.724.906.906,0,0,0,.06.336,1.016,1.016,0,0,0,.178.289,1.613,1.613,0,0,0,.3.263q.181.127.416.273a3.272,3.272,0,0,1,1.025.847,1.633,1.633,0,0,1,.314.981,1.979,1.979,0,0,1-.136.72,1.623,1.623,0,0,1-.435.622,2.23,2.23,0,0,1-.771.435,3.519,3.519,0,0,1-1.152.165,3.817,3.817,0,0,1-.419-.025,4.438,4.438,0,0,1-.46-.076A4.015,4.015,0,0,1,37.6-.067a1.956,1.956,0,0,1-.371-.168l.209-.99a2.187,2.187,0,0,0,.314.178,3.249,3.249,0,0,0,.406.159,3.8,3.8,0,0,0,.457.114,2.572,2.572,0,0,0,.473.044,1.49,1.49,0,0,0,.949-.254.856.856,0,0,0,.314-.7.939.939,0,0,0-.048-.3.855.855,0,0,0-.168-.279,1.867,1.867,0,0,0-.317-.282q-.2-.143-.5-.321a3.207,3.207,0,0,1-.955-.822,1.618,1.618,0,0,1-.308-.968,1.976,1.976,0,0,1,.146-.752,1.82,1.82,0,0,1,.435-.635,2.115,2.115,0,0,1,.727-.441,2.892,2.892,0,0,1,1.022-.165,4.077,4.077,0,0,1,.866.089,3.076,3.076,0,0,1,.7.229Zm3.886,2.209q-.99.063-.99,1.346V.1a1.742,1.742,0,0,1-1.942,1.968v-.8a.954.954,0,0,0,.784-.317,1.683,1.683,0,0,0,.232-1V-1.885q0-1.339.946-1.625v-.025q-.946-.3-.946-1.638v-1.86q0-1.231-1.016-1.257V-9.1a1.753,1.753,0,0,1,1.942,1.993v1.854q0,1.308.99,1.371Z" transform="translate(1071.62 5692.015)" fill="#212429"/>
    <path id="Trazado_1031956" data-name="Trazado 1031956" d="M-10.092,2.069A1.745,1.745,0,0,1-12.041.1V-1.8q0-1.282-.99-1.346v-.736q.99-.063.99-1.371V-7.109A1.756,1.756,0,0,1-10.092-9.1v.813Q-11.1-8.265-11.1-7.033v1.86q0,1.333-.952,1.638v.025q.952.286.952,1.625V-.051A1.718,1.718,0,0,0-10.876.955a.947.947,0,0,0,.784.314ZM-5.1,0H-6.136V-7.865a2.41,2.41,0,0,1-.352.276,5.743,5.743,0,0,1-.521.308Q-7.3-7.128-7.618-7a4.429,4.429,0,0,1-.625.209V-7.839A6.052,6.052,0,0,0-7.517-8.1q.384-.162.755-.362t.7-.419a5.569,5.569,0,0,0,.571-.428H-5.1ZM2.479-9.1-1.888,1.511H-2.86L1.495-9.1ZM9.024-4.875A2.069,2.069,0,0,1,9-4.615q-.022.165-.057.355t-.07.378q-.035.187-.067.321L8.053,0H7l.793-3.809q.025-.1.051-.235t.044-.267q.019-.133.032-.244a1.633,1.633,0,0,0,.013-.175A1.157,1.157,0,0,0,7.7-5.491a.843.843,0,0,0-.689-.279,1.6,1.6,0,0,0-.832.248,3.421,3.421,0,0,0-.762.628,4.286,4.286,0,0,0-.6.838,3.211,3.211,0,0,0-.34.882L3.8,0H2.747l1-4.64q.051-.248.1-.517t.1-.521q.044-.251.076-.467T4.073-6.5H5.089q-.032.248-.076.517t-.076.5q-.038.267-.083.521h.025a5.368,5.368,0,0,1,.492-.657,3.681,3.681,0,0,1,.584-.54,2.773,2.773,0,0,1,.667-.365,2.072,2.072,0,0,1,.74-.133,1.919,1.919,0,0,1,.743.13,1.391,1.391,0,0,1,.517.365,1.486,1.486,0,0,1,.3.565A2.525,2.525,0,0,1,9.024-4.875Zm4.019,1.727q-.99.063-.99,1.346V.1a1.742,1.742,0,0,1-1.942,1.968v-.8A.954.954,0,0,0,10.9.952a1.683,1.683,0,0,0,.232-1V-1.885q0-1.339.946-1.625v-.025q-.946-.3-.946-1.638v-1.86q0-1.231-1.016-1.257V-9.1a1.753,1.753,0,0,1,1.942,1.993v1.854q0,1.308.99,1.371Z" transform="translate(1163.998 5699.064)" fill="#212429"/>
    <path id="Trazado_1031955" data-name="Trazado 1031955" d="M-1.222,2.865H-2.5A11.638,11.638,0,0,0,.237-4.825,11.845,11.845,0,0,0-2.522-12.6h1.3a11.611,11.611,0,0,1,2.742,7.8A11.188,11.188,0,0,1-1.222,2.865Z" transform="translate(1143.998 5705.064)" fill="#212429"/>
    <path id="Trazado_1031954" data-name="Trazado 1031954" d="M1.827-.527a7.392,7.392,0,0,1-3.48.738A5.613,5.613,0,0,1-5.96-1.521,6.389,6.389,0,0,1-7.577-6.064a6.7,6.7,0,0,1,1.819-4.887,6.175,6.175,0,0,1,4.614-1.863,7.4,7.4,0,0,1,2.971.519v1.573a6.024,6.024,0,0,0-2.988-.756,4.585,4.585,0,0,0-3.52,1.45A5.463,5.463,0,0,0-6.03-6.152,5.2,5.2,0,0,0-4.769-2.483,4.292,4.292,0,0,0-1.46-1.116,6.208,6.208,0,0,0,1.827-1.96ZM7.972,2.293a7.222,7.222,0,0,1-.167,1.635,3.811,3.811,0,0,1-.482,1.2,2.169,2.169,0,0,1-.774.743,2.119,2.119,0,0,1-1.043.254,1.979,1.979,0,0,1-.987-.244,2.068,2.068,0,0,1-.731-.71,3.6,3.6,0,0,1-.451-1.146,7.085,7.085,0,0,1-.154-1.556,8.02,8.02,0,0,1,.161-1.7A3.893,3.893,0,0,1,3.82-.467,2.111,2.111,0,0,1,4.6-1.221,2.181,2.181,0,0,1,5.66-1.475Q7.972-1.475,7.972,2.293Zm-.861.082q0-3.138-1.492-3.138-1.574,0-1.574,3.194,0,2.979,1.543,2.979Q7.111,5.41,7.111,2.375Z" transform="translate(1055 5720.015)" fill="#212429"/>
    <path id="Trazado_1031957" data-name="Trazado 1031957" d="M-4.853-4.447h-4.8V-5.581h4.8ZM7.578,0H6.137V-10.89a3.336,3.336,0,0,1-.488.382,7.951,7.951,0,0,1-.721.426q-.4.211-.844.4a6.132,6.132,0,0,1-.866.29v-1.459a8.379,8.379,0,0,0,1.006-.356q.532-.224,1.046-.5t.971-.58a7.71,7.71,0,0,0,.791-.593h.545Z" transform="translate(1196.287 5704.064)" fill="#212429"/>
    <path id="Trazado_1031594" data-name="Trazado 1031594" d="M-.945,13.86V-12.69H2.709v1.92H.5V11.94H2.709v1.92Z" transform="translate(974 5700.205)" fill="#212429"/>
    <path id="Trazado_1031596" data-name="Trazado 1031596" d="M2.709,13.86V-12.69H-.945v1.92H1.269V11.94H-.945v1.92Z" transform="translate(1132 5700.205)" fill="#212429"/>
    <path id="Trazado_1031595" data-name="Trazado 1031595" d="M-92.025,871.275H52.5" transform="translate(1076.525 4829.515)" fill="none" stroke="#212429" stroke-width="1"/>
  </g>
</svg>
